<?xml version="1.0" encoding="UTF-8"?>
<svg id="Layer_2" data-name="Layer 2" xmlns="http://www.w3.org/2000/svg" viewBox="0 0 305.45 305.45">
  <defs>
    <style>
      .cls-1 {
        fill: none;
        stroke: #25859e;
        stroke-miterlimit: 10;
        stroke-width: 2px;
      }
    </style>
  </defs>
  <g id="Layer_1-2" data-name="Layer 1">
    <path class="cls-1" d="M230.93,227.67c.05-.09.1-.19.15-.28.07-.13.13-.26.19-.4.03-.07.06-.15.09-.22.06-.16.12-.31.17-.47.02-.06.04-.13.06-.19.05-.17.1-.33.13-.5.02-.07.03-.15.04-.22.03-.16.06-.32.08-.48.01-.09.02-.19.02-.28.01-.14.02-.28.03-.42,0-.12,0-.24,0-.36,0-.12,0-.24-.01-.35,0-.13-.03-.26-.04-.4-.01-.11-.02-.22-.04-.32-.02-.13-.05-.26-.08-.38-.02-.11-.05-.23-.08-.34-.03-.11-.07-.22-.1-.33-.04-.13-.08-.26-.13-.39-.03-.09-.07-.18-.11-.27-.06-.15-.13-.29-.2-.44-.02-.03-.03-.07-.05-.1l-74.18-142.51c-1.03-1.98-2.82-3.3-4.82-3.81-.02,0-.04,0-.05-.01-.2-.05-.4-.09-.6-.12-.06-.01-.12-.02-.18-.03-.16-.02-.32-.04-.48-.05-.1,0-.2-.02-.29-.02-.12,0-.25,0-.37,0-.13,0-.26,0-.4.01-.09,0-.18.02-.27.02-.17.02-.33.04-.5.06-.05,0-.11.02-.16.03-.21.04-.41.09-.62.14-.01,0-.02,0-.03.01-1.99.56-3.75,1.93-4.73,3.94l-69.06,141.59c-.19.38-.33.77-.45,1.17,0,0,0,.02,0,.03-.06.21-.11.41-.15.62,0,.04-.02.08-.03.12-.03.18-.06.36-.08.54,0,.08-.02.16-.02.23-.01.14-.02.28-.02.43,0,.12,0,.24,0,.36,0,.1,0,.2.02.31,0,.16.02.31.04.47,0,.07.02.13.03.19.03.19.06.37.11.56,0,.03.02.07.03.1.05.21.11.42.18.62,0,0,0,0,0,.01.06.17.11.34.19.51,1.63,3.83,6.05,5.62,9.88,3.99l68.31-29c3.83-1.63,5.62-6.05,3.99-9.88s-6.05-5.62-9.88-3.99l-49.76,21.13,53.69-110.1,52.35,100.56-51.18-37.59c-3.36-2.46-8.07-1.74-10.54,1.61-2.46,3.36-1.74,8.07,1.61,10.54l77.28,56.75s.07.04.1.07c.12.09.25.17.37.24.09.06.19.12.28.17.11.06.21.11.32.17.12.06.24.12.36.17.09.04.17.07.26.1.14.06.29.11.44.16.07.02.15.04.23.07.16.05.32.09.47.12.08.02.16.03.24.05.15.03.31.06.46.08.1.01.2.02.3.03.14.01.27.02.41.03.12,0,.24,0,.36,0,.12,0,.24,0,.36-.01.13,0,.26-.03.39-.04.11-.01.22-.03.34-.04.12-.02.25-.05.37-.07.12-.03.24-.05.36-.08.1-.03.21-.06.31-.09.14-.04.28-.09.42-.14.08-.03.16-.07.24-.1.16-.07.32-.14.47-.22.03-.01.06-.02.08-.04.04-.02.07-.05.11-.07.16-.08.31-.17.46-.27.07-.04.14-.09.2-.14.13-.09.26-.19.39-.28.08-.06.16-.13.23-.19.11-.09.21-.18.31-.28.09-.08.17-.17.26-.26.08-.09.16-.18.24-.27.09-.1.18-.21.26-.32.04-.05.09-.1.13-.16.03-.04.05-.08.08-.12.08-.11.15-.22.22-.33.07-.11.13-.21.2-.32Z"/>
    <rect class="cls-1" x="1" y="1" width="303.45" height="303.45" rx="40" ry="40"/>
  </g>
</svg>